<svg xmlns="http://www.w3.org/2000/svg" version="1.1" xmlns:xlink="http://www.w3.org/1999/xlink" width="512" height="512" x="0" y="0" viewBox="0 0 512 512" style="enable-background:new 0 0 512 512" xml:space="preserve"><g><path d="M501.818 381.585h-8.127V91.717c0-13.129-10.681-23.81-23.81-23.81H42.118c-13.129 0-23.81 10.681-23.81 23.81v289.868h-8.127C4.567 381.585 0 386.153 0 391.768v12.144c0 22.156 18.025 40.182 40.182 40.182h431.637c22.156 0 40.182-18.025 40.182-40.182v-12.144c-.001-5.615-4.568-10.183-10.183-10.183zM34.309 91.717c0-4.307 3.503-7.81 7.81-7.81h427.764c4.307 0 7.81 3.503 7.81 7.81v289.868H307.884a8 8 0 0 0-8 8v11.402h-87.768v-11.402a8 8 0 0 0-8-8H34.309zM496 403.911c0 13.334-10.848 24.182-24.182 24.182H40.182C26.848 428.093 16 417.245 16 403.911v-6.326h180.116v11.402a8 8 0 0 0 8 8h103.768a8 8 0 0 0 8-8v-11.402H496zM254.626 351.1a8.018 8.018 0 0 0 2.748 0l3.366-.587c26.645-4.645 50.979-18.685 68.523-39.533 17.553-20.857 27.219-47.241 27.219-74.29v-74.781c0-3.2-1.907-6.093-4.849-7.354l-92.482-39.634a8.013 8.013 0 0 0-6.303 0l-92.482 39.634a8.002 8.002 0 0 0-4.849 7.354v74.781c0 27.049 9.666 53.433 27.219 74.29 17.544 20.849 41.879 34.889 68.523 39.533zm-83.108-114.411v-69.506L256 130.979l84.482 36.205v69.506c0 48.487-34.692 89.729-82.49 98.062l-1.992.346-1.992-.347c-47.798-8.333-82.49-49.574-82.49-98.062zM319.82 215.79c8.176-8.223 8.139-21.564-.082-29.739-3.982-3.961-9.275-6.184-14.887-6.118-5.617.016-10.892 2.217-14.872 6.219l-47.912 48.499-20.045-20.046c-8.215-8.213-21.576-8.213-29.791 0-8.213 8.214-8.213 21.578 0 29.792l34.995 34.995c4.107 4.106 9.501 6.159 14.896 6.159s10.789-2.054 14.896-6.159c14.979-14.981 52.762-53.461 62.802-63.602zm-81.28 52.287-34.994-34.995a5.069 5.069 0 0 1 0-7.163c.987-.988 2.284-1.481 3.581-1.481s2.594.493 3.581 1.481l25.736 25.736c1.506 1.506 3.56 2.302 5.682 2.343a8 8 0 0 0 5.667-2.378l53.55-54.205a5.034 5.034 0 0 1 7.113-.02c1.966 1.955 1.975 5.146.007 7.125-10.076 10.177-47.831 48.629-62.76 63.557a5.068 5.068 0 0 1-7.163 0z" fill="#1fafeb" opacity="1" data-original="#000000"></path></g></svg>