<svg width="274" height="82" viewBox="0 0 274 82" fill="none" xmlns="http://www.w3.org/2000/svg">
<path d="M3.01378 33.9996L3.01632 36.4996L0.511163 36.5022L0.513776 33.997L3.01378 33.9996ZM259.535 81.675L245.117 67.2262L259.566 52.8075L273.984 67.2564L259.535 81.675ZM259.585 33.7399L259.583 31.2399L262.088 31.2373L262.085 33.7425L259.585 33.7399ZM3.01124 31.4996L259.583 31.2399L259.588 36.2399L3.01632 36.4996L3.01124 31.4996ZM262.085 33.7425L262.05 67.2439L257.05 67.2387L257.085 33.7373L262.085 33.7425ZM0.513776 33.997L0.548858 0.496295L5.54887 0.501531L5.51377 34.0022L0.513776 33.997Z" fill="#EFE5FD"/>
</svg>
