<svg xmlns="http://www.w3.org/2000/svg" version="1.1" xmlns:xlink="http://www.w3.org/1999/xlink" width="512" height="512" x="0" y="0" viewBox="0 0 64 64" style="enable-background:new 0 0 512 512" xml:space="preserve" class=""><g><path d="M31.606 49.538a23.136 23.136 0 0 1-3.606.437v-10.95a23.604 23.604 0 0 1 2.834.3 1 1 0 1 0 .332-1.972A25.588 25.588 0 0 0 28 37.026V28h10.98c-.017.742-.047 1.49-.104 2.247a1 1 0 0 0 1.994.149c.06-.806.093-1.605.11-2.396H51a1 1 0 0 0 1-1A25 25 0 1 0 9.835 45.15c.01.01.012.024.021.034.016.017.037.022.054.038A24.903 24.903 0 0 0 27 52a25.202 25.202 0 0 0 5.005-.502 1 1 0 0 0-.399-1.96Zm-11.375-.557a22.981 22.981 0 0 1-8.136-4.484 23.154 23.154 0 0 1 3.617-2.537 20.7 20.7 0 0 0 4.519 7.021Zm-2.723-7.935A22.67 22.67 0 0 1 26 39.026v10.888c-3.45-.549-6.488-3.902-8.492-8.868ZM26 37.026a24.685 24.685 0 0 0-9.179 2.135A39.129 39.129 0 0 1 15.013 28H26Zm2-32.94c3.444.548 6.478 3.891 8.482 8.844A22.87 22.87 0 0 1 28 14.953Zm5.77.933a22.98 22.98 0 0 1 8.12 4.47 23.014 23.014 0 0 1-3.61 2.527 20.678 20.678 0 0 0-4.51-6.997ZM26 4.086v10.867a22.87 22.87 0 0 1-8.482-2.023C19.522 7.977 22.556 4.634 26 4.086Zm-10.28 7.93a23.018 23.018 0 0 1-3.61-2.526 22.981 22.981 0 0 1 8.12-4.471 20.677 20.677 0 0 0-4.51 6.997ZM26 16.953V26H15.013a39.108 39.108 0 0 1 1.817-11.188 24.864 24.864 0 0 0 9.17 2.14Zm2 0a24.864 24.864 0 0 0 9.17-2.141A39.108 39.108 0 0 1 38.987 26H28ZM49.979 26h-8.993a40.73 40.73 0 0 0-1.996-12.089 25.02 25.02 0 0 0 4.371-3.052A22.922 22.922 0 0 1 49.98 26Zm-39.34-15.141a25.014 25.014 0 0 0 4.371 3.052A40.73 40.73 0 0 0 13.014 26H4.02a22.922 22.922 0 0 1 6.618-15.141ZM4.02 28h8.993a40.75 40.75 0 0 0 1.99 12.07 25.132 25.132 0 0 0-4.378 3.058A22.922 22.922 0 0 1 4.02 28ZM61 34a23.362 23.362 0 0 1-12.413-3.81 1.003 1.003 0 0 0-1.174 0A23.362 23.362 0 0 1 35 34a1 1 0 0 0-1 1v10c0 12.37 13.555 16.907 13.691 16.951a1 1 0 0 0 .618 0C48.445 61.907 62 57.37 62 45V35a1 1 0 0 0-1-1Zm-1 11c0 9.922-10.09 14.214-12 14.937-1.91-.723-12-5.015-12-14.937v-9.022a25.354 25.354 0 0 0 12-3.776 25.354 25.354 0 0 0 12 3.776Zm-14 4.586 8.293-8.293a1 1 0 0 1 1.414 1.414l-9 9a1 1 0 0 1-1.414 0l-5-5a1 1 0 0 1 1.414-1.414Z" data-name="01-Internet Security" fill="#003da8" opacity="1" data-original="#000000" class=""></path></g></svg>