<svg xmlns="http://www.w3.org/2000/svg" version="1.1" xmlns:xlink="http://www.w3.org/1999/xlink" width="512" height="512" x="0" y="0" viewBox="0 0 512 512" style="enable-background:new 0 0 512 512" xml:space="preserve" class=""><g><path d="M.5 404.792h474.773v15.323c0 8.446-6.876 15.322-15.323 15.322H15.823C7.377 435.437.5 428.561.5 420.115zm167.371-214.585 70.011-26.79 70.021 26.79v81.184c-9.515 32.813-32.44 55.287-70.021 68.628-37.551-13.331-60.476-35.805-70.011-68.637zm27.633 91.592c0 10.241 8.328 18.579 18.55 18.579h47.665c10.241 0 18.57-8.338 18.57-18.579v-36.56c0-9.81-7.642-17.873-17.294-18.53v-15.313c0-13.831-11.261-25.083-25.112-25.083-13.822 0-25.073 11.252-25.073 25.083v15.313c-9.643.638-17.304 8.711-17.304 18.53v36.56zm53.757-70.403c0-6.259-5.101-11.34-11.379-11.34-6.249 0-11.34 5.081-11.34 11.34v15.264h22.719zm-11.183 42.711h-.363a6.875 6.875 0 0 0-6.867 6.867 6.868 6.868 0 0 0 6.867 6.867h.363a6.862 6.862 0 0 0 6.867-6.867 6.868 6.868 0 0 0-6.867-6.867zM511.5 155.53c0 34.628-22.405 64.125-53.472 74.749a77.15 77.15 0 0 1-13.733 3.355 78.827 78.827 0 0 1-11.762.873c-.51 0-1.02 0-1.53-.02a78.204 78.204 0 0 1-13.733-1.471c-36.266-7.122-63.703-39.16-63.703-77.486 0-5.552.579-10.977 1.677-16.205a77.454 77.454 0 0 1 4.228-13.743 77.072 77.072 0 0 1 7.024-13.292 78.983 78.983 0 0 1 11.409-13.733c14.194-13.616 33.451-21.993 54.629-21.993 43.544-.001 78.966 35.422 78.966 78.966zm-41.416-40.454c-2.963-2.364-7.289-1.893-9.653 1.069l-45.144 56.366-16.833-18.687a6.871 6.871 0 0 0-9.702-.5 6.871 6.871 0 0 0-.5 9.702l22.238 24.691a6.903 6.903 0 0 0 5.111 2.266h.196a6.878 6.878 0 0 0 5.16-2.57l50.196-62.673c2.364-2.964 1.894-7.29-1.069-9.664zm-25.789 132.419a91.73 91.73 0 0 1-11.762.746c-.51 0-1.02 0-1.53-.02-.128 0-.255 0-.383-.01a91.972 91.972 0 0 1-13.351-1.236v117.048H58.533V139.325h282.731c.157-.952.343-1.893.54-2.825a89.966 89.966 0 0 1 3.002-10.918 84.812 84.812 0 0 1 1.972-5.238 88.289 88.289 0 0 1 3.767-8.054H46.664c-8.377 0-15.185 6.798-15.185 15.156v263.612h412.816z" fill="#0c3886" opacity="1" data-original="#000000" class=""></path></g></svg>