<svg xmlns="http://www.w3.org/2000/svg" version="1.1" xmlns:xlink="http://www.w3.org/1999/xlink" width="512" height="512" x="0" y="0" viewBox="0 0 509.662 509.662" style="enable-background:new 0 0 512 512" xml:space="preserve" class=""><g><path d="M502.162 422.893h-28.245v-94.87a7.5 7.5 0 0 0-15 0v94.87H121.955a7.5 7.5 0 0 0 0 15h372.707v11.229c0 10.322-8.397 18.719-18.72 18.719H33.72c-10.322 0-18.72-8.397-18.72-18.719v-11.229h74.992a7.5 7.5 0 0 0 0-15H50.745V164.744c0-5.008 4.074-9.082 9.082-9.082h32.827a7.5 7.5 0 0 0 0-15H59.826c-13.279 0-24.082 10.803-24.082 24.082v258.149H7.5a7.5 7.5 0 0 0-7.5 7.5v18.729c0 18.593 15.126 33.719 33.72 33.719h442.223c18.593 0 33.72-15.126 33.72-33.719v-18.729a7.502 7.502 0 0 0-7.501-7.5z" fill="#1fafeb" opacity="1" data-original="#000000" class=""></path><path d="M124.616 155.662h163.889a7.5 7.5 0 0 0 0-15H124.616a7.5 7.5 0 0 0 0 15zM288.504 185.662a7.5 7.5 0 0 0 0-15H73.245a7.5 7.5 0 0 0-7.5 7.5v222.23a7.5 7.5 0 0 0 7.5 7.5h363.173a7.5 7.5 0 0 0 7.5-7.5v-72.37a7.5 7.5 0 0 0-15 0v64.87H80.745v-207.23z" fill="#1fafeb" opacity="1" data-original="#000000" class=""></path><path d="M502.162 226.612a7.5 7.5 0 0 0 7.5-7.5v-77.448c0-11.901-9.683-21.584-21.584-21.584h-5.074V99.491c0-40.071-32.6-72.67-72.671-72.67s-72.67 32.6-72.67 72.67v20.589h-5.074c-11.901 0-21.584 9.683-21.584 21.584v126.431c0 20.638 16.79 37.428 37.428 37.428h123.801c20.638 0 37.428-16.79 37.428-37.428v-17.021a7.5 7.5 0 0 0-15 0v17.021c0 12.367-10.061 22.428-22.428 22.428H348.433c-12.367 0-22.428-10.061-22.428-22.428V141.664a6.592 6.592 0 0 1 6.584-6.584h155.489a6.591 6.591 0 0 1 6.584 6.584v77.448a7.5 7.5 0 0 0 7.5 7.5zM352.663 99.491c0-31.8 25.871-57.67 57.67-57.67s57.671 25.871 57.671 57.67v20.589h-19V99.491c0-21.323-17.348-38.67-38.671-38.67s-38.67 17.348-38.67 38.67v20.589h-19zm81.341 20.589h-47.341V99.491c0-13.052 10.619-23.67 23.67-23.67 13.052 0 23.671 10.619 23.671 23.67z" fill="#1fafeb" opacity="1" data-original="#000000" class=""></path><path d="M440.504 186.206c-1.65-13.825-12.896-24.969-26.742-26.498-8.635-.952-17.273 1.801-23.7 7.558a30.437 30.437 0 0 0-10.121 22.644c0 7.807 2.92 15.155 8.245 20.81l-4.613 14.96c-1.49 4.832-.623 9.937 2.38 14.005s7.625 6.402 12.682 6.402h23.396c5.057 0 9.679-2.333 12.682-6.402s3.871-9.173 2.38-14.005l-4.613-14.961c6.187-6.575 9.105-15.448 8.024-24.513zm-22.702 27.817 4.958 16.077c.028.091.113.368-.115.677s-.518.31-.613.31h-23.396c-.095 0-.384 0-.613-.31s-.143-.586-.115-.677l4.956-16.072c1.436-4.656.147-9.709-3.363-13.189a15.279 15.279 0 0 1-4.559-10.929 15.42 15.42 0 0 1 5.128-11.471 15.226 15.226 0 0 1 10.257-3.921c.591 0 1.189.033 1.789.099 6.987.771 12.662 6.393 13.494 13.366.573 4.8-1.044 9.483-4.435 12.849-3.515 3.486-4.807 8.541-3.373 13.191zm13.937-2.543c.001-.001.001-.001 0 0l.002-.002-.002.002z" fill="#1fafeb" opacity="1" data-original="#000000" class=""></path></g></svg>