<svg xmlns="http://www.w3.org/2000/svg" version="1.1" xmlns:xlink="http://www.w3.org/1999/xlink" width="512" height="512" x="0" y="0" viewBox="0 0 682.667 682.667" style="enable-background:new 0 0 512 512" xml:space="preserve" class=""><g><defs stroke-width="15" style="stroke-width: 15;"><clipPath id="a" clipPathUnits="userSpaceOnUse" stroke-width="15" style="stroke-width: 15;"><path d="M0 512h512V0H0Z" fill="#003da8" opacity="1" data-original="#000000" stroke-width="15" style="stroke-width: 15;"></path></clipPath></defs><g clip-path="url(#a)" transform="matrix(1.33333 0 0 -1.33333 0 682.667)" stroke-width="15" style="stroke-width: 15;"><path d="M0 0c-40.017 28.18-88.814 44.728-141.477 44.728-32.655 0-63.824-6.363-92.334-17.916" style="stroke-width: 15; stroke-linecap: round; stroke-linejoin: round; stroke-miterlimit: 10; stroke-dasharray: none; stroke-opacity: 1;" transform="translate(397.477 457.272)" fill="none" stroke="#003da8" stroke-width="15" stroke-linecap="round" stroke-linejoin="round" stroke-miterlimit="10" stroke-dasharray="none" stroke-opacity="" data-original="#000000" class="" opacity="1"></path><path d="M0 0c32.221 41.6 51.397 93.813 51.397 150.504 0 50.818-15.409 98.037-41.809 137.239" style="stroke-width: 15; stroke-linecap: round; stroke-linejoin: round; stroke-miterlimit: 10; stroke-dasharray: none; stroke-opacity: 1;" transform="translate(450.603 105.496)" fill="none" stroke="#003da8" stroke-width="15" stroke-linecap="round" stroke-linejoin="round" stroke-miterlimit="10" stroke-dasharray="none" stroke-opacity="" data-original="#000000" class="" opacity="1"></path><path d="M0 0c-32.221-41.6-51.397-93.813-51.397-150.504 0-135.862 110.138-246 246-246 32.655 0 63.823 6.362 92.334 17.915" style="stroke-width: 15; stroke-linecap: round; stroke-linejoin: round; stroke-miterlimit: 10; stroke-dasharray: none; stroke-opacity: 1;" transform="translate(61.397 406.504)" fill="none" stroke="#003da8" stroke-width="15" stroke-linecap="round" stroke-linejoin="round" stroke-miterlimit="10" stroke-dasharray="none" stroke-opacity="" data-original="#000000" class="" opacity="1"></path><path d="M0 0c-45.188 0-81.951-36.763-81.951-81.951v-27.631h40.975v27.631c0 22.594 18.382 40.975 40.976 40.975 22.594 0 40.976-18.381 40.976-40.975v-27.631h40.975v27.631C81.951-36.763 45.188 0 0 0Z" style="stroke-width: 15; stroke-linecap: round; stroke-linejoin: round; stroke-miterlimit: 10; stroke-dasharray: none; stroke-opacity: 1;" transform="translate(256 418.832)" fill="none" stroke="#003da8" stroke-width="15" stroke-linecap="round" stroke-linejoin="round" stroke-miterlimit="10" stroke-dasharray="none" stroke-opacity="" data-original="#000000" class="" opacity="1"></path><path d="M0 0c0 15.625-12.667 28.292-28.292 28.292-15.626 0-28.293-12.667-28.293-28.292 0-7.816 3.169-14.891 8.293-20.011v-33.656c0-11.046 8.954-20 20-20 11.045 0 20 8.954 20 20v33.656C-3.169-14.891 0-7.816 0 0Z" style="stroke-width: 15; stroke-linecap: round; stroke-linejoin: round; stroke-miterlimit: 10; stroke-dasharray: none; stroke-opacity: 1;" transform="translate(284.293 239.938)" fill="none" stroke="#003da8" stroke-width="15" stroke-linecap="round" stroke-linejoin="round" stroke-miterlimit="10" stroke-dasharray="none" stroke-opacity="" data-original="#000000" class="" opacity="1"></path><path d="M0 0h-155.665c-14.452 0-26.168-11.716-26.168-26.167v-131.666c0-14.451 11.716-26.167 26.168-26.167H0c14.452 0 26.167 11.716 26.167 26.167v131.666C26.167-11.716 14.452 0 0 0Z" style="stroke-width: 15; stroke-linecap: round; stroke-linejoin: round; stroke-miterlimit: 10; stroke-dasharray: none; stroke-opacity: 1;" transform="translate(333.833 309.25)" fill="none" stroke="#003da8" stroke-width="15" stroke-linecap="round" stroke-linejoin="round" stroke-miterlimit="10" stroke-dasharray="none" stroke-opacity="" data-original="#000000" class="" opacity="1"></path><path d="M0 0c0-15.464-12.536-28-28-28S-56-15.464-56 0s12.536 28 28 28S0 15.464 0 0Z" style="stroke-width: 15; stroke-linecap: round; stroke-linejoin: round; stroke-miterlimit: 10; stroke-dasharray: none; stroke-opacity: 1;" transform="translate(108.24 428.645)" fill="none" stroke="#003da8" stroke-width="15" stroke-linecap="round" stroke-linejoin="round" stroke-miterlimit="10" stroke-dasharray="none" stroke-opacity="" data-original="#000000" class="" opacity="1"></path><path d="M0 0c0 15.464 12.536 28 28 28S56 15.464 56 0 43.464-28 28-28 0-15.464 0 0Z" style="stroke-width: 15; stroke-linecap: round; stroke-linejoin: round; stroke-miterlimit: 10; stroke-dasharray: none; stroke-opacity: 1;" transform="translate(403.76 83.355)" fill="none" stroke="#003da8" stroke-width="15" stroke-linecap="round" stroke-linejoin="round" stroke-miterlimit="10" stroke-dasharray="none" stroke-opacity="" data-original="#000000" class="" opacity="1"></path><path d="M0 0v0" style="stroke-width: 15; stroke-linecap: round; stroke-linejoin: round; stroke-miterlimit: 10; stroke-dasharray: none; stroke-opacity: 1;" transform="translate(431.76 428.116)" fill="none" stroke="#003da8" stroke-width="15" stroke-linecap="round" stroke-linejoin="round" stroke-miterlimit="10" stroke-dasharray="none" stroke-opacity="" data-original="#000000" class="" opacity="1"></path></g></g></svg>