<svg xmlns="http://www.w3.org/2000/svg" version="1.1" xmlns:xlink="http://www.w3.org/1999/xlink" width="512" height="512" x="0" y="0" viewBox="0 0 74 74" style="enable-background:new 0 0 512 512" xml:space="preserve" class=""><g><path d="M59.5 53.42h-8.58a1 1 0 0 1 0-2h8.58A10.5 10.5 0 0 0 61 30.53a1 1 0 0 1-.71-.46 1 1 0 0 1-.1-.84A15 15 0 0 0 46 9.42a14.89 14.89 0 0 0-14 9.52 1 1 0 0 1-1.36.54A10.82 10.82 0 0 0 26 18.42a11 11 0 0 0-11 11 1 1 0 0 1-1 1 10.49 10.49 0 0 0 .46 21h8.58a1 1 0 0 1 0 2H14.5a12.49 12.49 0 0 1-1.5-24.9 13 13 0 0 1 13-12.1 12.83 12.83 0 0 1 4.59.84 17 17 0 0 1 31.84 11.51 12.5 12.5 0 0 1-2.93 24.65z" fill="#1fafeb" opacity="1" data-original="#000000"></path><path d="M49.53 66.58H24.47a2.39 2.39 0 0 1-2.39-2.39v-16a2.39 2.39 0 0 1 2.39-2.39h25.06a2.39 2.39 0 0 1 2.39 2.39v16a2.39 2.39 0 0 1-2.39 2.39zM24.47 47.8a.39.39 0 0 0-.39.39v16a.39.39 0 0 0 .39.39h25.06a.39.39 0 0 0 .39-.39v-16a.39.39 0 0 0-.39-.39z" fill="#1fafeb" opacity="1" data-original="#000000"></path><path d="M46.15 47.8h-18.3a1 1 0 0 1-1-1v-7.58a10.15 10.15 0 0 1 20.3 0v7.58a1 1 0 0 1-1 1zm-17.3-2h16.3v-6.58a8.15 8.15 0 0 0-16.3 0zM37 58.17a3.34 3.34 0 1 1 3.34-3.33A3.34 3.34 0 0 1 37 58.17zm0-4.67a1.34 1.34 0 1 0 1.34 1.34A1.34 1.34 0 0 0 37 53.5z" fill="#1fafeb" opacity="1" data-original="#000000"></path><path d="M37 60.88a1 1 0 0 1-1-1v-2.71a1 1 0 0 1 2 0v2.71a1 1 0 0 1-1 1z" fill="#1fafeb" opacity="1" data-original="#000000"></path></g></svg>