<svg xmlns="http://www.w3.org/2000/svg" version="1.1" xmlns:xlink="http://www.w3.org/1999/xlink" width="512" height="512" x="0" y="0" viewBox="0 0 60 60" style="enable-background:new 0 0 512 512" xml:space="preserve" class=""><g><path d="M9.036 59.965 50.957 60a4 4 0 0 0 3.521-2.042 3.9 3.9 0 0 0-.051-3.978L43.469 35.637c.156-.166.313-.314.468-.493l3.517 1.008a1.721 1.721 0 0 0 1.943-.728c.2-.3.871-1.454 1.023-1.75a1.733 1.733 0 0 0-.333-2.085l-2.62-2.514a18.51 18.51 0 0 0 .662-2.471l3.568-.879A1.753 1.753 0 0 0 53 24.13c.011-.179.012-.653.012-1.137s0-.959-.011-1.113a1.769 1.769 0 0 0-1.34-1.628l-3.535-.871a18.489 18.489 0 0 0-.662-2.47l2.622-2.511a1.727 1.727 0 0 0 .347-2.063 36.024 36.024 0 0 0-1.005-1.724 1.74 1.74 0 0 0-1.979-.776l-3.512 1.008a17.281 17.281 0 0 0-1.816-1.807l1.007-3.5a1.749 1.749 0 0 0-.755-1.965 55.701 55.701 0 0 0-1.725-.99 1.741 1.741 0 0 0-2.091.329l-2.536 2.61a17.774 17.774 0 0 0-2.485-.662l-.891-3.56A1.758 1.758 0 0 0 31.023.008a85.263 85.263 0 0 0-2.023 0 1.767 1.767 0 0 0-1.628 1.326l-.879 3.526a17.754 17.754 0 0 0-2.485.662l-2.532-2.608a1.737 1.737 0 0 0-2.071-.345c-.322.166-1.455.825-1.77 1.016a1.744 1.744 0 0 0-.735 1.958l1.005 3.491a17.307 17.307 0 0 0-1.815 1.808l-3.514-1.009a1.716 1.716 0 0 0-1.942.726 34.145 34.145 0 0 0-1.025 1.753 1.732 1.732 0 0 0 .333 2.088l2.62 2.515a18.521 18.521 0 0 0-.662 2.465l-3.567.88a1.747 1.747 0 0 0-1.307 1.595c-.01.179-.011.653-.011 1.138s0 .958.009 1.109a1.768 1.768 0 0 0 1.341 1.631l3.535.867a18.585 18.585 0 0 0 .662 2.471l-2.618 2.517A1.723 1.723 0 0 0 9.6 33.65c.169.327.838 1.478 1.005 1.726a1.735 1.735 0 0 0 1.978.774l3.512-1.006c.154.178.3.343.454.5L5.575 53.937a3.9 3.9 0 0 0-.06 3.98 3.992 3.992 0 0 0 3.521 2.048zm8.458-26.259a1.783 1.783 0 0 0-1.8-.527l-3.48 1a46.235 46.235 0 0 1-.744-1.277l2.617-2.512a1.772 1.772 0 0 0 .414-1.843 16.419 16.419 0 0 1-.661-2.447 1.782 1.782 0 0 0-1.306-1.4l-3.516-.867V22.15l3.544-.874a1.766 1.766 0 0 0 1.275-1.376 16.432 16.432 0 0 1 .66-2.46 1.779 1.779 0 0 0-.43-1.856l-2.6-2.5c.182-.328.534-.933.745-1.276l3.49 1a1.8 1.8 0 0 0 1.815-.555 15.591 15.591 0 0 1 1.833-1.819 1.771 1.771 0 0 0 .528-1.8l-1-3.467c.337-.2.938-.547 1.285-.739l2.525 2.6a1.789 1.789 0 0 0 1.838.426 16.019 16.019 0 0 1 2.5-.664A1.8 1.8 0 0 0 28.4 5.5l.869-3.5h1.492l.882 3.528A1.8 1.8 0 0 0 33.029 6.8a15.838 15.838 0 0 1 2.5.667 1.783 1.783 0 0 0 1.826-.446l2.514-2.59c.335.186.957.547 1.284.739l-1 3.47a1.78 1.78 0 0 0 .559 1.82 15.546 15.546 0 0 1 1.823 1.817 1.789 1.789 0 0 0 1.806.529l3.48-1c.19.308.549.926.744 1.276L45.947 15.6a1.776 1.776 0 0 0-.414 1.843 16.331 16.331 0 0 1 .656 2.443 1.785 1.785 0 0 0 1.306 1.4l3.517.866v1.684l-3.544.874a1.769 1.769 0 0 0-1.276 1.378 16.281 16.281 0 0 1-.66 2.46 1.785 1.785 0 0 0 .43 1.857l2.6 2.5c-.181.327-.533.931-.745 1.277l-3.488-1a1.784 1.784 0 0 0-1.819.557c-.037.044-.072.08-.108.122l-1.911-3.2a13 13 0 1 0-20.968.024l-1.9 3.17c-.044-.055-.084-.095-.129-.149zm3.164-4.914a11 11 0 1 1 18.7-.03L33.5 18.955A4 4 0 0 0 30.032 17a4 4 0 0 0-3.466 1.953zM7.288 54.969l20.991-34.993a2.015 2.015 0 0 1 1.75-.976 2.016 2.016 0 0 1 1.751.985l20.936 35.024a1.926 1.926 0 0 1 .026 1.964A2.018 2.018 0 0 1 50.961 58l-41.923-.035a2.019 2.019 0 0 1-1.781-1.03 1.925 1.925 0 0 1 .031-1.966z" fill="#1fafeb" opacity="1" data-original="#000000" class=""></path><path d="M30 46a3 3 0 0 0 3-3V31a3 3 0 0 0-6 0v12a3 3 0 0 0 3 3zm-1-15a1 1 0 0 1 2 0v12a1 1 0 0 1-2 0zM30 54a3 3 0 1 0-3-3 3 3 0 0 0 3 3zm0-4a1 1 0 1 1-1 1 1 1 0 0 1 1-1z" fill="#1fafeb" opacity="1" data-original="#000000" class=""></path></g></svg>