<svg xmlns="http://www.w3.org/2000/svg" version="1.1" xmlns:xlink="http://www.w3.org/1999/xlink" width="512" height="512" x="0" y="0" viewBox="0 0 512.001 512" style="enable-background:new 0 0 512 512" xml:space="preserve" class=""><g><path d="m247.188 322.223-30.583-29.032a7.503 7.503 0 0 1-.273-10.605 7.499 7.499 0 0 1 10.602-.274l24.101 22.883 43.559-65.742c2.289-3.453 6.945-4.398 10.394-2.11a7.498 7.498 0 0 1 2.11 10.395l-48.493 73.192c-2.488 3.75-8.128 4.453-11.417 1.293zm0 0" fill="#003da8" opacity="1" data-original="#000000"></path><path d="M252.219 433.39C140.953 381.419 120.586 268.399 117.07 234.82c-.808-7.757 3.453-15.027 10.606-18.086 21.875-9.355 36.597-29.91 38.426-53.644.585-7.649 6.793-13.453 14.43-13.5l149.269-.875h.082c7.488 0 13.847 5.797 14.496 13.238 2.07 23.723 17.016 44.133 38.996 53.258 7.227 2.996 11.598 10.226 10.879 17.988-3.121 33.617-22.133 146.942-132.809 200.14-2.652 1.274-6.57 1.294-9.226.052zm-71.192-268.804c-2.375 29.18-20.53 54.426-47.453 65.941-1.07.457-1.707 1.555-1.586 2.73 3.285 31.411 21.973 137.192 124.758 185.696 102.2-49.703 119.652-155.695 122.57-187.14.11-1.18-.57-2.286-1.691-2.754-27.023-11.215-45.438-36.227-48.148-65.344zm0 0" fill="#003da8" opacity="1" data-original="#000000"></path><path d="M250.719 402.61c-33.547-18.34-60.36-44.868-79.23-79.708-15.657-28.906-22.567-57.218-25.61-75.879-.824-5.062 1.473-10.043 5.855-12.687 18.043-10.887 31.098-28.055 36.762-48.344 1.488-5.34 6.399-9.094 11.93-9.125l109.797-.644c5.554.004 10.484 3.66 12.039 8.984 5.902 20.219 19.156 37.234 37.328 47.91 4.41 2.594 6.765 7.543 6 12.613-2.82 18.696-9.399 47.082-24.719 76.176-18.46 35.059-44.96 61.899-78.285 80.633-3.168 1.781-7.711 2.344-11.867.07zM160.96 246.27c2.988 17.511 9.516 43.27 23.715 69.492 17.219 31.789 41.402 56.328 71.89 72.96 30.293-16.992 54.188-41.816 71.032-73.804 13.894-26.39 20.117-52.219 22.898-69.758-20.172-12.336-35.027-31.375-42.086-53.926l-106 .621c-6.789 22.63-21.422 41.844-41.45 54.415zm0 0" fill="#003da8" opacity="1" data-original="#000000"></path><path d="M429.816 333.758h-35.421a7.497 7.497 0 0 1-7.5-7.5 7.5 7.5 0 0 1 7.5-7.5h35.421c37.047 0 67.184-30.137 67.184-67.184 0-37.043-30.137-67.414-67.184-67.183-8.566.054-9.316-5.57-9.394-17.512C419.89 83.137 352.289 15 268.547 15c-61.149 0-118.485 38.965-141.098 95.574-1.172 2.934-4.367 4.621-10.672 4.625C60.657 115.234 15 160.86 15 216.977c0 56.12 45.656 101.78 101.777 101.78a7.5 7.5 0 0 1 7.5 7.5 7.5 7.5 0 0 1-7.5 7.5C52.387 333.758 0 281.372 0 216.978c0-63.973 51.707-116.098 115.527-116.77C151.5 13.695 234.52 0 268.547 0c92.015 0 166.879 74.863 166.879 166.879 0 .898-.012 1.797-.024 2.7C478.125 172.456 512 208.132 512 251.573c0 45.317-36.867 82.184-82.184 82.184zm0 0" fill="#003da8" opacity="1" data-original="#000000"></path></g></svg>