<svg xmlns="http://www.w3.org/2000/svg" version="1.1" xmlns:xlink="http://www.w3.org/1999/xlink" width="512" height="512" x="0" y="0" viewBox="0 0 510 510" style="enable-background:new 0 0 512 512" xml:space="preserve" fill-rule="evenodd" class=""><g><path d="M70.895 74.453c0-1.818.693-3.474 1.829-4.719a6.979 6.979 0 0 1 3.81-2.149c6.217-1.358 227.793-49.764 271.345-59.326a11.125 11.125 0 0 1 13.513 10.869v48.325h66.586a11.127 11.127 0 0 1 11.127 11.128v412.291A11.127 11.127 0 0 1 427.978 502H77.895c-3.865 0-7-3.135-7-7zm14 7V488h340.21V81.453zm262.497-14V22.699c-33.428 7.332-136.524 29.864-204.666 44.754zm-214.54 103.89c32.604-2.585 60.991-16.918 82.462-32.253a7.003 7.003 0 0 1 4.069-1.304h71.234c1.459 0 2.881.456 4.069 1.304 21.471 15.335 49.858 29.668 82.462 32.253a7 7 0 0 1 6.446 6.978v106.24c0 36.085-18.103 69.381-43.26 95.397-24.843 25.691-56.485 44.219-83.521 51.47a6.993 6.993 0 0 1-3.627 0c-27.027-7.251-58.669-25.779-83.514-51.47-25.158-26.015-43.266-59.311-43.266-95.397v-106.24a7 7 0 0 1 6.446-6.978zm7.554 13.302v99.916c0 32.472 16.69 62.254 39.33 85.665 22.4 23.163 50.705 40.145 75.265 47.177 24.566-7.031 52.871-24.014 75.269-47.177 22.638-23.411 39.324-53.192 39.324-85.665l.001-99.916c-31.752-3.926-59.593-17.75-81.201-32.859h-66.787c-21.609 15.109-49.45 28.933-81.201 32.859zm112.503 222.504c-29.395-9.2-60.814-31.635-81.222-59.735-13.911-19.155-22.692-40.915-22.692-62.862V198.09a7.001 7.001 0 0 1 5.746-6.887c24.319-4.431 47.187-14.84 67.68-28.724a7 7 0 0 1 3.926-1.205h57.322a7 7 0 0 1 3.928 1.206c20.477 13.883 43.344 24.292 67.662 28.723a7.001 7.001 0 0 1 5.746 6.887v86.462c0 21.953-8.781 43.715-22.692 62.869-20.408 28.098-51.827 50.528-81.222 59.728a7.002 7.002 0 0 1-4.182 0zM255 393.11c26.216-8.789 53.841-28.935 71.985-53.916 12.112-16.676 20.02-35.528 20.02-54.642v-80.729c-23.389-5.128-45.472-15.265-65.467-28.549h-53.061c-20.009 13.284-42.093 23.421-65.482 28.549v80.729c0 19.108 7.908 37.958 20.02 54.635 18.144 24.982 45.768 45.134 71.985 53.923zm-10.404-116.792 53.406-52.855c6.547-6.48 17.124-6.426 23.604.122 6.481 6.548 6.426 17.124-.122 23.605l-63.877 63.219c-5.983 5.921-15.438 6.461-22.056 1.259l-45.608-35.847c-7.243-5.693-8.501-16.194-2.808-23.437 5.692-7.243 16.194-8.501 23.437-2.809zm-46.002-11.504 45.609 35.847a2.69 2.69 0 0 0 3.556-.203l63.877-63.219a2.692 2.692 0 0 0-3.786-3.826l-57.797 57.202c-1.471 1.224-2.764 1.971-4.924 2.025 0 0-2.032.166-4.337-1.506l-1.078-.846-37.794-29.706a2.691 2.691 0 0 0-3.326 4.232z" fill="#1fafeb" opacity="1" data-original="#000000" class=""></path></g></svg>