<svg xmlns="http://www.w3.org/2000/svg" version="1.1" xmlns:xlink="http://www.w3.org/1999/xlink" width="512" height="512" x="0" y="0" viewBox="0 0 124 124" style="enable-background:new 0 0 512 512" xml:space="preserve" class=""><g><path d="M62.082 79.883c-9.972 0-18.085-7.951-18.085-17.726S52.11 44.43 62.082 44.43c1.414 0 3.137.348 3.023 2.158-.109 1.728-1.675 1.842-3.023 1.842-7.767 0-14.085 6.158-14.085 13.727s6.318 13.726 14.085 13.726 14.085-6.158 14.085-13.726a13.3 13.3 0 0 0-1.552-6.273 2 2 0 1 1 3.537-1.867 17.498 17.498 0 0 1 2.015 8.14c0 9.775-8.112 17.726-18.085 17.726z" fill="#1fafeb" opacity="1" data-original="#000000" class=""></path><path d="M71.62 51.494c-.405 0-.814-.123-1.168-.378a14.45 14.45 0 0 0-1.67-1.037 2 2 0 1 1 1.87-3.535c.742.393 1.462.839 2.14 1.328 1.536 1.107.724 3.622-1.172 3.622zM116.474 30.605l-.071-8.683a2 2 0 0 0-2-1.983h-.017a2 2 0 0 0-1.984 2.016l.021 2.635C100.416 10.292 81.183 1 62.735 1 43.659 1 26.001 9.544 14.296 24.439a2 2 0 1 0 3.146 2.47C28.384 12.985 44.893 5 62.735 5c17.934 0 36.663 9.366 47.813 23.623h-5.489a2 2 0 0 0 0 4h9.415c.645-.001 2-.72 2-2.018zM119.937 39.766a2 2 0 0 0-3.727 1.453A55.52 55.52 0 0 1 120 61.463c0 21.931-15.277 42.99-37.045 52.057l1.49-2.28a2 2 0 1 0-3.349-2.187l-4.77 7.298c-.664 1.013-.237 2.436.867 2.924l8.036 3.544c2.359 1.035 3.974-2.618 1.614-3.66l-3.419-1.507c10.495-4.167 20.009-11.097 27.169-19.876C119.365 87.02 124 74.464 124 61.463a59.514 59.514 0 0 0-4.063-21.697c-.401-1.029 2.696 6.919 0 0zM65.108 117.878c-.787.031-1.578.047-2.373.047-31.576 0-57.265-25.328-57.265-56.462 0-5.508 2.315-12.397 4.521-18.212l1.764 3.903c1.065 2.354 4.706.699 3.646-1.646l-3.729-8.25c-.459-1.014-1.722-1.463-2.718-.965l-7.849 3.931a2 2 0 1 0 1.791 3.575l3.221-1.613c-2.282 6.05-4.646 13.222-4.646 19.276 0 33.338 27.483 60.461 61.265 60.461.848 0 1.692-.018 2.531-.051a1.999 1.999 0 1 0-.159-3.994c-.786.031 1.101-.042 0 0z" fill="#1fafeb" opacity="1" data-original="#000000" class=""></path><path d="M65.201 101.99c-1.963 0-7.782.023-8.688-.363-1.56-.664-2.832-2.357-2.832-4.093V93.55a32.499 32.499 0 0 1-8.561-3.617l-2.8 2.794c-1.758 1.736-4.755 1.445-6.442-.169-.824-.789-4.032-4.065-4.774-4.927-1.582-1.839-1.547-4.689.182-6.415l2.818-2.811c-1.648-2.808-2.85-5.759-3.534-8.678h-3.944c-2.459 0-4.491-2.02-4.626-4.457-.063-1.139-.033-5.734 0-6.878.068-2.357 1.975-4.621 4.462-4.621h3.998a32.278 32.278 0 0 1 3.622-8.535l-2.795-2.789c-1.749-1.749-1.446-4.759.169-6.439.791-.822 4.075-4.024 4.938-4.763 1.84-1.575 4.69-1.54 6.418.182l2.822 2.816c2.815-1.646 5.775-2.846 8.703-3.53V26.62c0-2.46 2.028-4.485 4.462-4.621 1.141-.063 5.747-.036 6.894 0a4.605 4.605 0 0 1 4.462 4.621v3.984a32.465 32.465 0 0 1 8.561 3.617l2.8-2.794c1.754-1.742 4.759-1.441 6.442.17.824.789 4.032 4.064 4.773 4.926 1.582 1.84 1.547 4.689-.183 6.415l-2.817 2.811c1.648 2.807 2.849 5.757 3.534 8.677h3.944c2.402 0 4.529 1.777 4.775 4.209.119 1.177.05 5.95.016 7.127-.068 2.358-1.973 4.62-4.462 4.62H93.54a32.312 32.312 0 0 1-3.622 8.536l2.795 2.788c1.75 1.75 1.446 4.76-.169 6.44-.791.822-4.074 4.023-4.938 4.762-1.841 1.576-4.689 1.543-6.418-.181l-2.822-2.816c-2.815 1.645-5.774 2.846-8.703 3.53v3.929c0 2.358-2.026 4.62-4.462 4.62zm-7.521-4.615c.043.203.186.615.626.615h6.737c.205-.043.62-.185.62-.621v-5.568a2 2 0 0 1 1.672-1.972c3.409-.567 6.949-1.995 10.238-4.128a2.002 2.002 0 0 1 2.501.262l3.939 3.931c.317.317.742.13.942.012l4.792-4.622c.286-.285.113-.69-.005-.892l-3.794-3.786a2 2 0 0 1-.237-2.547c2.023-2.951 3.546-6.533 4.288-10.088a2 2 0 0 1 1.958-1.591h5.424c.204-.042.619-.183.619-.619v-6.726c-.082-.405-.348-.61-.791-.61h-5.581a2 2 0 0 1-1.973-1.671c-.567-3.399-1.998-6.929-4.135-10.21a2 2 0 0 1 .263-2.508l3.939-3.931c.311-.31.128-.729.012-.928l-4.632-4.781c-.29-.288-.702-.114-.907.004L80.4 38.187a1.997 1.997 0 0 1-2.54.235c-2.957-2.017-6.549-3.538-10.114-4.279a2 2 0 0 1-1.593-1.958v-5.568c0-.385-.269-.621-.462-.621h-6.737c-.205.043-.62.185-.62.621v5.732a2 2 0 0 1-1.672 1.972c-3.408.567-6.948 1.994-10.238 4.127a1.996 1.996 0 0 1-2.5-.262l-3.939-3.93c-.316-.316-.742-.13-.942-.013l-4.792 4.622c-.286.285-.113.69.005.892l3.794 3.787a2 2 0 0 1 .237 2.547c-2.022 2.949-3.545 6.532-4.288 10.087a2 2 0 0 1-1.958 1.591H26.62c-.205.044-.62.185-.62.622v6.72c.043.203.186.615.626.615h5.581a2 2 0 0 1 1.973 1.671c.567 3.398 1.997 6.929 4.135 10.211a2 2 0 0 1-.263 2.508l-3.939 3.93c-.311.311-.128.73-.012.929l4.632 4.781c.29.289.702.115.907-.005l3.795-3.787a1.999 1.999 0 0 1 2.541-.235c2.956 2.018 6.547 3.539 10.113 4.28a2 2 0 0 1 1.593 1.958v5.408z" fill="#1fafeb" opacity="1" data-original="#000000" class=""></path></g></svg>