<svg xmlns="http://www.w3.org/2000/svg" version="1.1" xmlns:xlink="http://www.w3.org/1999/xlink" width="512" height="512" x="0" y="0" viewBox="0 0 682.667 682.667" style="enable-background:new 0 0 512 512" xml:space="preserve" class=""><g><defs><clipPath id="a" clipPathUnits="userSpaceOnUse"><path d="M0 512h512V0H0Z" fill="#003da8" opacity="1" data-original="#000000"></path></clipPath></defs><g clip-path="url(#a)" transform="matrix(1.33333 0 0 -1.33333 0 682.667)"><path d="M0 0v-33.7c0-11.951 9.688-21.639 21.64-21.639h452.257c11.952 0 21.64 9.688 21.64 21.639V0Z" style="stroke-width:15;stroke-linecap:round;stroke-linejoin:round;stroke-miterlimit:10;stroke-dasharray:none;stroke-opacity:1" transform="translate(8.231 169.685)" fill="none" stroke="#003da8" stroke-width="15" stroke-linecap="round" stroke-linejoin="round" stroke-miterlimit="10" stroke-dasharray="none" stroke-opacity="" data-original="#000000" opacity="1" class=""></path><path d="M0 0c-35.568-2.248-64.891 27.076-62.644 62.644 1.858 29.388 25.599 53.129 54.988 54.986 35.568 2.248 64.89-27.075 62.643-62.643C53.13 25.598 29.389 1.857 0 0Zm110.685 86.616c-17.514-.063-26.303 21.093-13.938 33.459 8.56 8.559 8.56 22.437 0 30.996l-8.821 8.821c-8.497 8.498-21.973 8.082-30.44-.446-12.34-12.428-33.513-3.683-33.513 13.804 0 12.104-9.813 21.917-21.918 21.917H-9.711c-12.105 0-21.918-9.813-21.918-21.917 0-17.461-21.111-26.206-33.459-13.859-8.559 8.559-22.436 8.559-30.996 0l-8.319-8.32c-8.56-8.56-8.56-22.437 0-30.996 12.365-12.366 3.576-33.522-13.938-33.459-12.016.043-21.84-9.192-21.84-21.209V52.932c0-12.105 9.814-21.917 21.918-21.917 17.461 0 26.206-21.112 13.86-33.459-8.56-8.56-8.56-22.437 0-30.996l8.319-8.32c8.56-8.56 22.437-8.56 30.996 0 12.348 12.347 33.459 3.602 33.459-13.859v-.001c0-12.104 9.813-21.917 21.918-21.917H2.055c12.105 0 21.918 9.813 21.918 21.917 0 17.462 21.111 26.207 33.459 13.86 8.558-8.56 22.436-8.56 30.996 0l8.319 8.32c8.56 8.559 8.56 22.436 0 30.996-12.365 12.365-3.576 33.521 13.938 33.458 12.016-.043 21.839 9.192 21.839 21.209v13.184c0 12.017-9.823 21.252-21.839 21.209z" style="stroke-width:15;stroke-linecap:round;stroke-linejoin:round;stroke-miterlimit:10;stroke-dasharray:none;stroke-opacity:1" transform="translate(259.828 309.332)" fill="none" stroke="#003da8" stroke-width="15" stroke-linecap="round" stroke-linejoin="round" stroke-miterlimit="10" stroke-dasharray="none" stroke-opacity="" data-original="#000000" opacity="1" class=""></path><path d="M0 0h-86.447c-11.951 0-21.64-9.688-21.64-21.639v-243.457H387.45v243.457C387.45-9.688 377.762 0 365.811 0h-86.286" style="stroke-width:15;stroke-linecap:round;stroke-linejoin:round;stroke-miterlimit:10;stroke-dasharray:none;stroke-opacity:1" transform="translate(116.318 434.781)" fill="none" stroke="#003da8" stroke-width="15" stroke-linecap="round" stroke-linejoin="round" stroke-miterlimit="10" stroke-dasharray="none" stroke-opacity="" data-original="#000000" opacity="1" class=""></path><path d="M0 0h-209.371c-10.777 0-19.514 8.736-19.514 19.513 0 10.777 8.737 19.513 19.514 19.513H0c10.777 0 19.514-8.736 19.514-19.513C19.514 8.736 10.777 0 0 0Z" style="stroke-width:15;stroke-linecap:round;stroke-linejoin:round;stroke-miterlimit:10;stroke-dasharray:none;stroke-opacity:1" transform="translate(360.685 7.5)" fill="none" stroke="#003da8" stroke-width="15" stroke-linecap="round" stroke-linejoin="round" stroke-miterlimit="10" stroke-dasharray="none" stroke-opacity="" data-original="#000000" opacity="1" class=""></path><path d="M0 0c-18.583 13.608-29.837 35.385-29.837 58.832v8.988" style="stroke-width:15;stroke-linecap:round;stroke-linejoin:round;stroke-miterlimit:10;stroke-dasharray:none;stroke-opacity:1" transform="translate(333.419 46.526)" fill="none" stroke="#003da8" stroke-width="15" stroke-linecap="round" stroke-linejoin="round" stroke-miterlimit="10" stroke-dasharray="none" stroke-opacity="" data-original="#000000" opacity="1" class=""></path><path d="M0 0v-8.988C0-32.436-11.254-54.211-29.837-67.82" style="stroke-width:15;stroke-linecap:round;stroke-linejoin:round;stroke-miterlimit:10;stroke-dasharray:none;stroke-opacity:1" transform="translate(208.418 114.346)" fill="none" stroke="#003da8" stroke-width="15" stroke-linecap="round" stroke-linejoin="round" stroke-miterlimit="10" stroke-dasharray="none" stroke-opacity="" data-original="#000000" opacity="1" class=""></path></g></g></svg>