<svg xmlns="http://www.w3.org/2000/svg" version="1.1" xmlns:xlink="http://www.w3.org/1999/xlink" width="512" height="512" x="0" y="0" viewBox="0 0 64 64" style="enable-background:new 0 0 512 512" xml:space="preserve" class=""><g><path d="M52 12H6a4.004 4.004 0 0 0-4 4v38a4.004 4.004 0 0 0 4 4h46a4.004 4.004 0 0 0 4-4V16a4.004 4.004 0 0 0-4-4zM6 14h46a2.003 2.003 0 0 1 2 2v4H4v-4a2.003 2.003 0 0 1 2-2zm46 42H6a2.003 2.003 0 0 1-2-2V22h50v32a2.003 2.003 0 0 1-2 2zM61 14h-3a1 1 0 0 0 0 2h3a1 1 0 0 0 0-2zM59.364 10.05a1 1 0 0 0-1.414-1.414l-2.122 2.122a1 1 0 0 0 1.414 1.414zM53 11a1 1 0 0 0 1-1V7a1 1 0 0 0-2 0v3a1 1 0 0 0 1 1z" fill="#003da8" opacity="1" data-original="#000000" class=""></path><path d="M7 18h4a1 1 0 0 0 0-2H7a1 1 0 0 0 0 2zM14 18h4a1 1 0 0 0 0-2h-4a1 1 0 0 0 0 2zM21 18h4a1 1 0 0 0 0-2h-4a1 1 0 0 0 0 2zM32.4 27.838a4.089 4.089 0 0 0-6.8.001L13.913 45.716a4.083 4.083 0 0 0 3.4 6.284h23.376a4.083 4.083 0 0 0 3.4-6.284zm10.102 21.081A2.033 2.033 0 0 1 40.688 50H17.311a2.062 2.062 0 0 1-1.725-3.19l11.688-17.876a2.062 2.062 0 0 1 3.452-.001L42.414 46.81a2.034 2.034 0 0 1 .088 2.109z" fill="#003da8" opacity="1" data-original="#000000" class=""></path><path d="M29 31a3.67 3.67 0 0 0-3.5 3.813c0 .7.809 7.187 3.5 7.187s3.5-6.487 3.5-7.188A3.67 3.67 0 0 0 29 31zm0 8.911a11.798 11.798 0 0 1-1.5-5.099A1.68 1.68 0 0 1 29 33a1.68 1.68 0 0 1 1.5 1.813A11.798 11.798 0 0 1 29 39.91zM29 43a3 3 0 0 0 0 6 3 3 0 0 0 0-6zm0 4a1 1 0 0 1 0-2 1 1 0 0 1 0 2z" fill="#003da8" opacity="1" data-original="#000000" class=""></path></g></svg>