<svg xmlns="http://www.w3.org/2000/svg" version="1.1" xmlns:xlink="http://www.w3.org/1999/xlink" width="512" height="512" x="0" y="0" viewBox="0 0 431.849 431" style="enable-background:new 0 0 512 512" xml:space="preserve" class=""><g><path d="M382.074 387.18H49.77c-18.008 0-34.114-9.274-43.082-24.809-8.934-15.473-8.915-33.98.042-49.5l166.157-287.66C181.847 9.69 197.902.426 215.832.426c18.004 0 34.129 9.308 43.137 24.906l166.144 287.54c8.965 15.519 8.98 34.026.051 49.5-8.98 15.538-25.078 24.808-43.09 24.808zM215.828 14.082c-12.992 0-24.629 6.715-31.121 17.961L18.551 319.699c-6.488 11.25-6.504 24.649-.043 35.848 6.5 11.262 18.187 17.984 31.258 17.984H382.07c13.07 0 24.758-6.722 31.258-17.984 6.465-11.2 6.45-24.598-.047-35.848L247.133 32.16h-.004c-6.527-11.32-18.234-18.078-31.3-18.078zm0 0" fill="#003da8" opacity="1" data-original="#000000" class=""></path><path d="M219.734 339.395c-15.308 0-27.77-12.454-27.77-27.77s12.458-27.773 27.77-27.773 27.77 12.457 27.77 27.773-12.457 27.77-27.77 27.77zm0-41.887c-7.78 0-14.113 6.332-14.113 14.12 0 7.778 6.328 14.114 14.113 14.114s14.118-6.332 14.118-14.113c0-7.79-6.336-14.121-14.118-14.121zM219.734 262.594c-11.074 0-20.402-8.653-21.234-19.696l-8.46-112.12a29.857 29.857 0 0 1 7.858-22.497 29.87 29.87 0 0 1 21.836-9.531 29.871 29.871 0 0 1 21.84 9.531 29.872 29.872 0 0 1 7.86 22.496l-8.461 112.121c-.836 11.043-10.164 19.696-21.239 19.696zm0-150.188c-4.539 0-8.742 1.832-11.828 5.16-3.086 3.336-4.597 7.66-4.254 12.188l8.461 112.121c.301 3.957 3.645 7.063 7.617 7.063 3.977 0 7.325-3.106 7.622-7.063l8.46-112.121c.344-4.527-1.167-8.856-4.253-12.188-3.082-3.328-7.286-5.16-11.825-5.16zm0 0" fill="#003da8" opacity="1" data-original="#000000" class=""></path></g></svg>